<?xml version="1.0" encoding="utf-8"?>
<!-- Generator: Adobe Illustrator 18.1.0, SVG Export Plug-In . SVG Version: 6.00 Build 0)  -->
<!DOCTYPE svg PUBLIC "-//W3C//DTD SVG 1.1//EN" "http://www.w3.org/Graphics/SVG/1.1/DTD/svg11.dtd">
<svg version="1.1" id="Layer_1" xmlns="http://www.w3.org/2000/svg" xmlns:xlink="http://www.w3.org/1999/xlink" x="0px" y="0px"
	 viewBox="0 0 612 792" enable-background="new 0 0 612 792" xml:space="preserve">
<g>
	<path fill="#94F2A2" d="M180.1,345.8h8.1V357h-8.1V345.8z M180.1,367.8h8.1v58.7h-8.1V367.8z"/>
	<path fill="#94F2A2" d="M197.4,367.8h7.6c0,3.3,0,6.6-0.1,10.5c3.4-7.6,11.3-12.3,21.8-12.1c18.2,0.2,24.7,12.7,24.7,26.9v33.4h-8
		v-31.8c0-12.7-5.7-21.3-18.9-21c-12.1,0.1-19.1,7.4-19.1,19.6v33.2h-8.1L197.4,367.8L197.4,367.8z"/>
	<path fill="#94F2A2" d="M289,382.5c0-6.2-4.1-9.7-10-9.7c-6.4,0-10.4,4.4-10.1,9.5c0.2,5.6,4.5,7.8,11.5,9.9
		c8.4,2.3,17.8,4.7,18.2,17.2c0.5,10.8-8.3,18.6-19.4,18.6c-9.5,0-20-6-20.1-18.3h8c0.3,8.1,6.3,11.7,12.2,11.7
		c6.8,0,11.5-5,11.3-11c-0.2-6.6-4.6-9.4-14.7-12.3c-8.4-2.5-14.9-5.9-15.2-15.2c0-10.6,8.4-16.8,18.3-16.8
		c8.2,0,17.3,4.5,17.9,16.4L289,382.5L289,382.5z"/>
	<path fill="#94F2A2" d="M314.1,374.2h-11.5v-6.4h11.5v-22h8v22h12.9v6.4h-12.9v52.3h-8V374.2z"/>
	<path fill="#94F2A2" d="M395,426.5h-8.1v-12.1c-4.6,8.8-13.5,13.7-24,13.7c-19.1,0-30.4-14.8-30.4-31c0-17.2,12.5-31,30.4-31
		c12.5,0,21.2,7.3,24,14v-12.3h8.1V426.5z M340.5,397.3c0.1,10.6,7.4,23.3,23.5,23.3c10.4,0,18-6,21.2-14.3c1.3-2.8,2-6.1,2-9.3
		c0.1-3.3-0.5-6.6-1.9-9.4c-3.3-8.1-11.1-14.1-21.5-14.1C350.3,373.6,340.5,384.1,340.5,397.3L340.5,397.3z"/>
	<path fill="#94F2A2" d="M430.6,382.5c0-6.2-4.1-9.7-10-9.7c-6.4,0-10.4,4.4-10.1,9.5c0.2,5.6,4.5,7.8,11.5,9.9
		c8.4,2.3,17.8,4.7,18.2,17.2c0.5,10.8-8.3,18.6-19.4,18.6c-9.5,0-20-6-20.1-18.3h8c0.3,8.1,6.3,11.7,12.2,11.7
		c6.8,0,11.5-5,11.3-11c-0.2-6.6-4.6-9.4-14.7-12.3c-8.4-2.5-14.9-5.9-15.2-15.2c0-10.6,8.4-16.8,18.3-16.8
		c8.2,0,17.3,4.5,17.9,16.4L430.6,382.5L430.6,382.5z"/>
	<path fill="#94F2A2" d="M446.7,367.8h7.6V380c4.8-8.5,13.3-13.9,24.5-13.9c19.8,0,30.1,16,30.1,31.2c0,16.4-11.9,30.8-30.1,30.8
		c-13,0-21.4-7.5-24.1-13.7v12v22.3h-8.1V367.8z M500.9,397.1c0-11-7.8-23.5-23.5-23.5c-6.6,0-12.3,2.6-16.6,6.9
		c-4,4.2-6.6,10.1-6.6,16.8c0,6.6,2.5,12.4,6.8,16.7c4.1,4.1,10,6.6,16.6,6.6C490.8,420.6,500.9,410.6,500.9,397.1L500.9,397.1z"/>
	<path fill="#94F2A2" d="M514.8,345.8h8.1V357h-8.1V345.8z M514.8,367.8h8.1v58.7h-8.1V367.8z"/>
	<path fill="#94F2A2" d="M532,367.8h7.6c0,3.3,0,6.6-0.1,10.5c3.4-7.6,11.3-12.3,21.8-12.1c18.2,0.2,24.7,12.7,24.7,26.9v33.4h-8
		v-31.8c0-12.7-5.7-21.3-18.9-21c-12.1,0.1-19.1,7.4-19.1,19.6v33.2h-8.1L532,367.8L532,367.8z"/>
</g>
<polygon fill="#5F58C4" stroke="#000000" stroke-width="10" stroke-miterlimit="10" points="93.2,331.1 168.2,331.1 130.7,396 
	93.2,460.9 55.8,396 18.3,331.1 "/>
<g>
	<path d="M93.2,331.5c-23.8,0-43.1,19.3-43.1,43.1c0,23.8,19.3,43,43.1,43s43.1-19.3,43.1-43.1C136.3,350.7,117,331.5,93.2,331.5z
		 M93.2,390.5c-8.8,0-16-7.1-16-16s7.2-16,16-16s16,7.1,16,16S102,390.5,93.2,390.5z"/>
</g>
<circle cx="93.2" cy="374.6" r="5.7"/>
</svg>
