<?xml version="1.0" encoding="utf-8"?>
<!-- Generator: Adobe Illustrator 18.1.0, SVG Export Plug-In . SVG Version: 6.00 Build 0)  -->
<!DOCTYPE svg PUBLIC "-//W3C//DTD SVG 1.1//EN" "http://www.w3.org/Graphics/SVG/1.1/DTD/svg11.dtd">
<svg version="1.1" id="Layer_1" xmlns="http://www.w3.org/2000/svg" xmlns:xlink="http://www.w3.org/1999/xlink" x="0px" y="0px"
	 viewBox="0 312 612 480" enable-background="new 0 312 612 480" xml:space="preserve">
<g>
	<g>
		<polygon fill="#605DA9" stroke="#010101" stroke-width="10" stroke-miterlimit="10" points="305.9,337.5 553.8,337.5 429.8,552 
			305.9,766.5 182.2,552 58.2,337.5 		"/>
		<path fill="#010101" d="M305.9,338.8c-78.7,0-142.5,63.9-142.5,142.5s63.9,142.2,142.5,142.2S448.4,559.6,448.4,481
			S384.5,338.8,305.9,338.8z"/>
	</g>
	<g>
		<path fill="#94F2A2" d="M310.2,396.7c27,3.4,37,22.5,38.5,38.7h-7.2c-2.9-24.6-23.2-32.2-34.4-32.2c-16.2,0-33.7,13.1-33.7,34.4
			c0,24.2,18.4,29.4,39,35.1c12.4,3.6,40.2,11.2,40.2,44.6c0,21.8-17,43-42.3,44.6v22.8H303V562c-24.2-2.2-42.3-20.1-43.7-45.1h7.2
			c2.4,27.2,23.2,38.2,40.6,38.2c21.5,0,38.2-17,38.2-38c0-27.9-21.8-33.9-43.7-40.2c-13.8-3.8-35.4-12.4-35.4-39.4
			c0-21.5,14.8-38,36.8-40.9v-19.1h7.2v19.1H310.2z"/>
	</g>
</g>
</svg>
