<?xml version="1.0" encoding="utf-8"?>
<!-- Generator: Adobe Illustrator 18.1.0, SVG Export Plug-In . SVG Version: 6.00 Build 0)  -->
<!DOCTYPE svg PUBLIC "-//W3C//DTD SVG 1.1//EN" "http://www.w3.org/Graphics/SVG/1.1/DTD/svg11.dtd">
<svg version="1.1" id="Layer_1" xmlns="http://www.w3.org/2000/svg" xmlns:xlink="http://www.w3.org/1999/xlink" x="0px" y="0px"
	 viewBox="0 0 1174 501.9" enable-background="new 0 0 1174 501.9" xml:space="preserve">
<g>
	<g>
		<polygon fill="#605EAA" stroke="#020202" stroke-width="10" stroke-miterlimit="10" points="919.6,56.7 1144,56.7 1031.8,250.9 
			919.6,445.2 807.6,250.9 695.4,56.7 		"/>
		<path fill="#020202" d="M919.6,57.9c-71.2,0-129,57.8-129,129c0,71.2,57.8,128.7,129,128.7s129-57.8,129-129
			C1048.5,115.4,990.8,57.9,919.6,57.9z"/>
	</g>
	<g id="layer1_1_">
		<path id="path3_1_" fill="#5F5CA9" stroke="#A1D39A" stroke-width="5" stroke-miterlimit="10" d="M936.8,88.6
			c5.5,6.6,8.4,14.5,15.5,20.2c8.2,8.6,18.6,15.8,26.7,24.5c5.9,6.1,12.3,12.6,13.9,20.3c4.5,9.9,2.5,20.9-2.2,30.6
			c-5.4,5.2-9.1-1.5-7.6-5.7c0.2-5.8,0.1-11.5-2.6-16.9c-2.4-8.1-6.9-15.9-14.4-21.8c-6.5-4.6-13.8-14.6-23.7-11.1
			c-6.5,3.3-3.7,10-4.4,15.1c-0.4,31.6-0.4,63.3-1,94.9c-0.5,13.3-14.8,22.2-28.2,27.9c-11.9,5.8-26.2,9-40.1,6.4
			c-12.9-1.1-26.2-8.6-26.5-19.8c-0.9-12.9,10.8-25,25.1-30.1c14.1-6.4,31.9-7.8,47-3.2c7.4,1.9,9.5-3.6,10.4-8.9
			c0.9-40.3,1.5-80.5,1.7-120.8C926.7,86.1,934.9,85.1,936.8,88.6L936.8,88.6z"/>
	</g>
</g>
<g>
	<g>
		<polygon fill="#605EAA" stroke="#020202" stroke-width="10" stroke-miterlimit="10" points="254.2,56.7 478.6,56.7 366.4,250.9 
			254.2,445.2 142.2,250.9 30,56.7 		"/>
		<path fill="#020202" d="M254.2,57.9c-71.2,0-129,57.8-129,129c0,71.2,57.8,128.7,129,128.7s129-57.8,129-129
			C383.1,115.4,325.4,57.9,254.2,57.9z"/>
	</g>
	<g>
		<path fill="#5F5CA9" stroke="#A1D39A" stroke-width="5" stroke-miterlimit="10" d="M281.3,169.2c-6.5,9.3-16.2,15.3-27.2,15.3
			c-10.9,0-20.7-5.9-27.2-15.3c-25.9,8.1-44.1,27.4-44.1,49.9c0,29.8,31.9,54,71.2,54s71.2-24.2,71.2-54
			C325.4,196.6,307.2,177.3,281.3,169.2z"/>
		<ellipse fill="#5F5CA9" stroke="#A1D39A" stroke-width="5" stroke-miterlimit="10" cx="254.2" cy="142.3" rx="35.2" ry="42"/>
	</g>
</g>
<g>
	<polygon fill="#131313" points="729.5,216.3 706.8,187 689.2,216.3 688.3,217.9 437.9,217.9 417.9,245.6 671.5,245.6 714.8,245.6 
		749.2,245.6 752.1,245.6 	"/>
	<polygon fill="#131313" points="752.1,256.3 498.5,256.3 455.2,256.3 420.8,256.3 417.9,256.3 440.5,285.6 463.2,314.9 
		480.8,285.6 481.7,284 732.1,284 	"/>
</g>
</svg>
