<?xml version="1.0" encoding="utf-8"?>
<!-- Generator: Adobe Illustrator 18.1.0, SVG Export Plug-In . SVG Version: 6.00 Build 0)  -->
<!DOCTYPE svg PUBLIC "-//W3C//DTD SVG 1.1//EN" "http://www.w3.org/Graphics/SVG/1.1/DTD/svg11.dtd">
<svg version="1.1" id="Layer_1" xmlns="http://www.w3.org/2000/svg" xmlns:xlink="http://www.w3.org/1999/xlink" x="0px" y="0px"
	 viewBox="0 0 500 494" enable-background="new 0 0 500 494" xml:space="preserve">
<g>
	<g>
		<polygon fill="#605EAA" stroke="#020202" stroke-width="10" stroke-miterlimit="10" points="249.9,52.8 474.3,52.8 362.1,247 
			249.9,441.2 137.9,247 25.7,52.8 		"/>
		<g>
			<path fill="#020202" d="M249.9,54c-71.2,0-129,57.8-129,129s57.8,128.7,129,128.7s129-57.8,129-129S321.1,54,249.9,54z
				 M249.9,230.5c-26.3,0-47.9-21.2-47.9-47.9s21.5-47.9,47.9-47.9s47.9,21.2,47.9,47.9S276.5,230.5,249.9,230.5z"/>
		</g>
		<circle fill="#020202" cx="249.9" cy="182.7" r="17.1"/>
	</g>
	<path fill-rule="evenodd" clip-rule="evenodd" fill="#5F5CA9" stroke="#A1D39A" stroke-width="5" stroke-miterlimit="10" d="
		M249.9,142.4c-23.7-55.7-96.4-45-95.9,22.4c0.4,34.5,32.9,55.4,53.5,73.1c19.3,16.6,33.7,27.2,42.3,35h0.2
		c8.6-7.8,23.1-18.4,42.3-35c20.6-17.7,53.1-38.5,53.4-73.1C346.4,97.4,273.5,86.8,249.9,142.4z"/>
</g>
</svg>
