<?xml version="1.0" encoding="utf-8"?>
<!-- Generator: Adobe Illustrator 18.1.0, SVG Export Plug-In . SVG Version: 6.00 Build 0)  -->
<!DOCTYPE svg PUBLIC "-//W3C//DTD SVG 1.1//EN" "http://www.w3.org/Graphics/SVG/1.1/DTD/svg11.dtd">
<svg version="1.1" id="Layer_1" xmlns="http://www.w3.org/2000/svg" xmlns:xlink="http://www.w3.org/1999/xlink" x="0px" y="0px"
	 viewBox="0 162 554 460" enable-background="new 0 162 554 460" xml:space="preserve">
<g>
	<g>
		<polygon fill="#605DA9" stroke="#010101" stroke-width="10" stroke-miterlimit="10" points="276.9,197.8 501.3,197.8 389.1,392 
			276.9,586.2 164.9,392 52.7,197.8 		"/>
		<path fill="#010101" d="M276.9,199c-71.2,0-129,57.8-129,129s57.8,128.7,129,128.7s129-57.8,129-129S348.1,199,276.9,199z"/>
	</g>
	<g>
		<path fill="#94F2A2" d="M281.2,242.9c27.2,3.4,37.2,22.6,38.7,38.9h-7.2c-2.9-24.7-23.3-32.4-34.6-32.4
			c-16.3,0-33.9,13.2-33.9,34.6c0,24.3,18.5,29.6,39.2,35.3c12.5,3.6,40.4,11.3,40.4,44.9c0,21.9-17.1,43.2-42.5,44.9V432H274v-22.8
			c-24.3-2.2-42.5-20.2-44-45.4h7.2c2.4,27.4,23.3,38.4,40.8,38.4c21.6,0,38.4-17.1,38.4-38.2c0-28.1-21.9-34.1-44-40.4
			c-13.9-3.8-35.6-12.5-35.6-39.6c0-21.6,14.9-38.2,37-41.1v-19.2h7.2v19.2H281.2z"/>
	</g>
</g>
</svg>
