<?xml version="1.0" encoding="utf-8"?>
<!-- Generator: Adobe Illustrator 18.1.0, SVG Export Plug-In . SVG Version: 6.00 Build 0)  -->
<!DOCTYPE svg PUBLIC "-//W3C//DTD SVG 1.1//EN" "http://www.w3.org/Graphics/SVG/1.1/DTD/svg11.dtd">
<svg version="1.1" id="Layer_1" xmlns="http://www.w3.org/2000/svg" xmlns:xlink="http://www.w3.org/1999/xlink" x="0px" y="0px"
	 viewBox="0 0 1483.9 447.5" enable-background="new 0 0 1483.9 447.5" xml:space="preserve">
<g>
	<g>
		<path d="M436.8,102h19.6v27.2h-19.6V102z M436.8,155.4h19.6v142.3h-19.6V155.4z"/>
		<path d="M478.6,155.4h18.5c0,7.9,0,15.9-0.3,25.4c8.2-18.5,27.5-29.9,52.9-29.4c44.2,0.5,59.8,30.7,59.8,65.3v80.9h-19.3v-77
			c0-30.7-13.8-51.6-45.8-51c-29.4,0.3-46.3,18-46.3,47.6v80.4h-19.6V155.4z"/>
		<path d="M700.7,191.1c0-15.1-10-23.5-24.3-23.5c-15.6,0-25.1,10.6-24.6,23c0.5,13.5,10.8,19,28,24.1c20.4,5.6,43.1,11.4,44.2,41.8
			c1.1,26.2-20.1,45.2-47.1,45.2c-23,0-48.4-14.5-48.7-44.4h19.3c0.8,19.6,15.3,28.3,29.6,28.3c16.4,0,27.8-12.2,27.5-26.7
			c-0.5-16.1-11.1-22.7-35.7-29.9c-20.4-6.1-36.2-14.3-36.8-36.8c0-25.7,20.4-40.7,44.4-40.7c19.8,0,42,10.8,43.4,39.7H700.7z"/>
		<path d="M761.6,171h-28v-15.6h28V102h19.3v53.4h31.2V171h-31.2v126.7h-19.3V171z"/>
		<path d="M957.8,297.7h-19.6v-29.4c-11.1,21.4-32.8,33.3-58.2,33.3c-46.3,0-73.8-36-73.8-75.1c0-41.8,30.4-75.1,73.8-75.1
			c30.4,0,51.3,17.7,58.2,33.9v-29.9h19.6V297.7z M825.5,226.8c0.3,25.7,18,56.6,57.1,56.6c25.1,0,43.6-14.5,51.3-34.6
			c3.2-6.9,4.8-14.8,4.8-22.5c0.3-7.9-1.3-15.9-4.5-22.7c-7.9-19.6-27-34.1-52.1-34.1c-32.8,0-56.6,25.4-56.6,57.1V226.8z"/>
		<path d="M1044,191.1c0-15.1-10-23.5-24.3-23.5c-15.6,0-25.1,10.6-24.6,23c0.5,13.5,10.8,19,28,24.1c20.4,5.6,43.1,11.4,44.2,41.8
			c1.1,26.2-20.1,45.2-47.1,45.2c-23,0-48.4-14.5-48.7-44.4h19.3c0.8,19.6,15.3,28.3,29.6,28.3c16.4,0,27.8-12.2,27.5-26.7
			c-0.5-16.1-11.1-22.7-35.7-29.9c-20.4-6.1-36.2-14.3-36.8-36.8c0-25.7,20.4-40.7,44.4-40.7c19.8,0,42,10.8,43.4,39.7H1044z"/>
		<path d="M1083.1,155.4h18.5V185c11.6-20.6,32.3-33.6,59.5-33.6c47.9,0,73,38.9,73,75.6c0,39.7-28.8,74.6-73,74.6
			c-31.5,0-51.8-18.2-58.4-33.1v29.1v54h-19.6V155.4z M1214.6,226.3c0-26.7-18.8-56.9-57.1-56.9c-15.9,0-29.9,6.3-40.2,16.7
			c-9.8,10.3-15.9,24.6-15.9,40.7c0,15.9,6.1,30.1,16.4,40.5c10,10,24.3,16.1,40.2,16.1c32,0,56.6-24.3,56.6-56.9V226.3z"/>
		<path d="M1248.2,102h19.6v27.2h-19.6V102z M1248.2,155.4h19.6v142.3h-19.6V155.4z"/>
		<path d="M1289.9,155.4h18.5c0,7.9,0,15.9-0.3,25.4c8.2-18.5,27.5-29.9,52.9-29.4c44.2,0.5,59.8,30.7,59.8,65.3v80.9h-19.3v-77
			c0-30.7-13.8-51.6-45.8-51c-29.4,0.3-46.3,18-46.3,47.6v80.4h-19.6V155.4z"/>
	</g>
	<g>
		<g>
			<circle cx="226" cy="171.8" r="104.4"/>
			<circle fill="#FFFFFF" cx="226" cy="171.8" r="38.7"/>
			<circle cx="226" cy="171.8" r="13.8"/>
		</g>
		<polygon fill="none" stroke="#000000" stroke-width="10" stroke-miterlimit="10" points="226,66.4 407.8,66.4 316.9,223.8 
			226,381.1 135.2,223.8 44.3,66.4 		"/>
	</g>
</g>
</svg>
